<svg width="4407" height="973" xmlns="http://www.w3.org/2000/svg" xmlns:xlink="http://www.w3.org/1999/xlink" xml:space="preserve" overflow="hidden"><g transform="translate(3 -722)"><path d="M1981.5 1200.06 2397.45 1200.06 2397.45 1206.94 1981.5 1206.94ZM2392.87 1189.75 2420.37 1203.5 2392.87 1217.25Z" fill="#156082"/><rect x="794.5" y="725.5" width="278" height="60.9998" stroke="#1C440D" stroke-width="6.875" stroke-miterlimit="8" fill="#4EA72E"/><text fill="#FFFFFF" font-family="DengXian,DengXian_MSFontService,sans-serif" font-weight="400" font-size="37" transform="matrix(1 0 0 1 839.725 767)">New layer 2</text><rect x="794.5" y="786.5" width="278" height="60.9998" stroke="#410C3B" stroke-width="6.875" stroke-miterlimit="8" fill="#A02B93"/><text fill="#FFFFFF" font-family="DengXian,DengXian_MSFontService,sans-serif" font-weight="400" font-size="37" transform="matrix(1 0 0 1 839.725 828)">New layer 1</text><rect x="0.499836" y="1559.5" width="278" height="60.9999" stroke="#622C0F" stroke-width="6.875" stroke-miterlimit="8" fill="#E97132"/><rect x="0.499836" y="1498.5" width="278" height="61.0002" stroke="#622C0F" stroke-width="6.875" stroke-miterlimit="8" fill="#E97132"/><rect x="0.499836" y="1437.5" width="278" height="60.9999" stroke="#622C0F" stroke-width="6.875" stroke-miterlimit="8" fill="#E97132"/><rect x="0.499836" y="1375.5" width="278" height="62.0002" stroke="#622C0F" stroke-width="6.875" stroke-miterlimit="8" fill="#E97132"/><rect x="529.5" y="1559.5" width="278" height="60.9999" stroke="#052909" stroke-width="6.875" stroke-miterlimit="8" fill="#196B24"/><rect x="529.5" y="1498.5" width="278" height="61.0002" stroke="#052909" stroke-width="6.875" stroke-miterlimit="8" fill="#196B24"/><rect x="529.5" y="1437.5" width="278" height="60.9999" stroke="#052909" stroke-width="6.875" stroke-miterlimit="8" fill="#196B24"/><rect x="529.5" y="1375.5" width="278" height="62.0002" stroke="#052909" stroke-width="6.875" stroke-miterlimit="8" fill="#196B24"/><rect x="1059.5" y="1559.5" width="278" height="60.9999" stroke="#024059" stroke-width="6.875" stroke-miterlimit="8" fill="#0F9ED5"/><rect x="1059.5" y="1498.5" width="278" height="61.0002" stroke="#024059" stroke-width="6.875" stroke-miterlimit="8" fill="#0F9ED5"/><rect x="1059.5" y="1437.5" width="278" height="60.9999" stroke="#024059" stroke-width="6.875" stroke-miterlimit="8" fill="#0F9ED5"/><rect x="1059.5" y="1375.5" width="278" height="62.0002" stroke="#024059" stroke-width="6.875" stroke-miterlimit="8" fill="#0F9ED5"/><rect x="1588.5" y="1559.5" width="278" height="60.9999" stroke="#042433" stroke-width="6.875" stroke-miterlimit="8" fill="#156082"/><rect x="1588.5" y="1498.5" width="278" height="61.0002" stroke="#042433" stroke-width="6.875" stroke-miterlimit="8" fill="#156082"/><rect x="1588.5" y="1437.5" width="278" height="60.9999" stroke="#042433" stroke-width="6.875" stroke-miterlimit="8" fill="#156082"/><rect x="1588.5" y="1375.5" width="278" height="62.0002" stroke="#042433" stroke-width="6.875" stroke-miterlimit="8" fill="#156082"/><text font-family="DengXian,DengXian_MSFontService,sans-serif" font-weight="400" font-size="37" transform="matrix(1 0 0 1 127.174 1663)">A</text><text font-family="DengXian,DengXian_MSFontService,sans-serif" font-weight="400" font-size="37" transform="matrix(1 0 0 1 658.067 1663)">B</text><text font-family="DengXian,DengXian_MSFontService,sans-serif" font-weight="400" font-size="37" transform="matrix(1 0 0 1 1186.38 1663)">C</text><text font-family="DengXian,DengXian_MSFontService,sans-serif" font-weight="400" font-size="37" transform="matrix(1 0 0 1 1714.7 1663)">D</text><path d="M1.90354-2.86233 777.012 512.61 773.205 518.335-1.90354 2.86233ZM778.907 501.486 794.192 528.163 763.679 524.384Z" transform="matrix(-1 0 0 1 933.692 847.5)"/><path d="M3.07308-1.54032 257.535 506.136 251.389 509.217-3.07308 1.54032ZM264.7 497.418 264.73 528.163 240.116 509.74Z" transform="matrix(-1 0 0 1 933.231 847.5)"/><path d="M936.573 845.959 1191.04 1353.64 1184.89 1356.72 930.427 849.04ZM1198.2 1344.92 1198.23 1375.66 1173.62 1357.24Z"/><path d="M935.404 844.638 1710.51 1360.11 1706.71 1365.83 931.597 850.362ZM1712.41 1348.99 1727.69 1375.66 1697.18 1371.88Z"/><rect x="2534.5" y="1295.5" width="278" height="60.9999" stroke="#622C0F" stroke-width="6.875" stroke-miterlimit="8" fill="#E97132"/><rect x="2534.5" y="1234.5" width="278" height="61.0002" stroke="#622C0F" stroke-width="6.875" stroke-miterlimit="8" fill="#E97132"/><rect x="2534.5" y="1172.5" width="278" height="61.9999" stroke="#622C0F" stroke-width="6.875" stroke-miterlimit="8" fill="#E97132"/><rect x="2534.5" y="1111.5" width="278" height="61.0002" stroke="#622C0F" stroke-width="6.875" stroke-miterlimit="8" fill="#E97132"/><rect x="3063.5" y="1295.5" width="278" height="60.9999" stroke="#052909" stroke-width="6.875" stroke-miterlimit="8" fill="#196B24"/><rect x="3063.5" y="1234.5" width="278" height="61.0002" stroke="#052909" stroke-width="6.875" stroke-miterlimit="8" fill="#196B24"/><rect x="3063.5" y="1172.5" width="278" height="61.9999" stroke="#052909" stroke-width="6.875" stroke-miterlimit="8" fill="#196B24"/><rect x="3063.5" y="1111.5" width="278" height="61.0002" stroke="#052909" stroke-width="6.875" stroke-miterlimit="8" fill="#196B24"/><rect x="3593.5" y="1295.5" width="278" height="60.9999" stroke="#024059" stroke-width="6.875" stroke-miterlimit="8" fill="#0F9ED5"/><rect x="3593.5" y="1234.5" width="278" height="61.0002" stroke="#024059" stroke-width="6.875" stroke-miterlimit="8" fill="#0F9ED5"/><rect x="3593.5" y="1172.5" width="278" height="61.9999" stroke="#024059" stroke-width="6.875" stroke-miterlimit="8" fill="#0F9ED5"/><rect x="3593.5" y="1111.5" width="278" height="61.0002" stroke="#024059" stroke-width="6.875" stroke-miterlimit="8" fill="#0F9ED5"/><rect x="4122.5" y="1295.5" width="278" height="60.9999" stroke="#042433" stroke-width="6.875" stroke-miterlimit="8" fill="#156082"/><rect x="4122.5" y="1234.5" width="278" height="61.0002" stroke="#042433" stroke-width="6.875" stroke-miterlimit="8" fill="#156082"/><rect x="4122.5" y="1172.5" width="278" height="61.9999" stroke="#042433" stroke-width="6.875" stroke-miterlimit="8" fill="#156082"/><rect x="4122.5" y="1111.5" width="278" height="61.0002" stroke="#042433" stroke-width="6.875" stroke-miterlimit="8" fill="#156082"/><text font-family="DengXian,DengXian_MSFontService,sans-serif" font-weight="400" font-size="37" transform="matrix(1 0 0 1 2660.95 1399)">A</text><text font-family="DengXian,DengXian_MSFontService,sans-serif" font-weight="400" font-size="37" transform="matrix(1 0 0 1 3191.85 1399)">B</text><text font-family="DengXian,DengXian_MSFontService,sans-serif" font-weight="400" font-size="37" transform="matrix(1 0 0 1 3720.16 1399)">C</text><text font-family="DengXian,DengXian_MSFontService,sans-serif" font-weight="400" font-size="37" transform="matrix(1 0 0 1 4248.48 1399)">D</text><rect x="2535.5" y="989.5" width="277" height="60.9998" stroke="#1C440D" stroke-width="6.875" stroke-miterlimit="8" fill="#4EA72E"/><text fill="#FFFFFF" font-family="DengXian,DengXian_MSFontService,sans-serif" font-weight="400" font-size="37" transform="matrix(1 0 0 1 2579.75 1031)">New layer 2</text><rect x="2535.5" y="1050.5" width="277" height="60.9999" stroke="#410C3B" stroke-width="6.875" stroke-miterlimit="8" fill="#A02B93"/><text fill="#FFFFFF" font-family="DengXian,DengXian_MSFontService,sans-serif" font-weight="400" font-size="37" transform="matrix(1 0 0 1 2579.75 1093)">New layer 1</text><rect x="3063.5" y="989.5" width="278" height="60.9998" stroke="#1C440D" stroke-width="6.875" stroke-miterlimit="8" fill="#4EA72E"/><text fill="#FFFFFF" font-family="DengXian,DengXian_MSFontService,sans-serif" font-weight="400" font-size="37" transform="matrix(1 0 0 1 3108.77 1031)">New layer 2</text><rect x="3063.5" y="1050.5" width="278" height="60.9999" stroke="#410C3B" stroke-width="6.875" stroke-miterlimit="8" fill="#A02B93"/><text fill="#FFFFFF" font-family="DengXian,DengXian_MSFontService,sans-serif" font-weight="400" font-size="37" transform="matrix(1 0 0 1 3108.77 1093)">New layer 1</text><rect x="3593.5" y="989.5" width="278" height="60.9998" stroke="#1C440D" stroke-width="6.875" stroke-miterlimit="8" fill="#4EA72E"/><text fill="#FFFFFF" font-family="DengXian,DengXian_MSFontService,sans-serif" font-weight="400" font-size="37" transform="matrix(1 0 0 1 3638.23 1031)">New layer 2</text><rect x="3593.5" y="1050.5" width="278" height="60.9999" stroke="#410C3B" stroke-width="6.875" stroke-miterlimit="8" fill="#A02B93"/><text fill="#FFFFFF" font-family="DengXian,DengXian_MSFontService,sans-serif" font-weight="400" font-size="37" transform="matrix(1 0 0 1 3638.23 1093)">New layer 1</text><rect x="4122.5" y="989.5" width="278" height="60.9998" stroke="#1C440D" stroke-width="6.875" stroke-miterlimit="8" fill="#4EA72E"/><text fill="#FFFFFF" font-family="DengXian,DengXian_MSFontService,sans-serif" font-weight="400" font-size="37" transform="matrix(1 0 0 1 4167.7 1031)">New layer 2</text><rect x="4122.5" y="1050.5" width="278" height="60.9999" stroke="#410C3B" stroke-width="6.875" stroke-miterlimit="8" fill="#A02B93"/><text fill="#FFFFFF" font-family="DengXian,DengXian_MSFontService,sans-serif" font-weight="400" font-size="37" transform="matrix(1 0 0 1 4167.7 1093)">New layer 1</text></g></svg>