<svg width="4407" height="1024" xmlns="http://www.w3.org/2000/svg" xmlns:xlink="http://www.w3.org/1999/xlink" xml:space="preserve" overflow="hidden"><g transform="translate(3 -731)"><rect x="0.499836" y="1559.5" width="278" height="60.9999" stroke="#622C0F" stroke-width="6.875" stroke-miterlimit="8" fill="#E97132"/><rect x="0.499836" y="1498.5" width="278" height="61.0002" stroke="#622C0F" stroke-width="6.875" stroke-miterlimit="8" fill="#E97132"/><rect x="0.499836" y="1437.5" width="278" height="60.9999" stroke="#622C0F" stroke-width="6.875" stroke-miterlimit="8" fill="#E97132"/><rect x="0.499836" y="1375.5" width="278" height="62.0002" stroke="#622C0F" stroke-width="6.875" stroke-miterlimit="8" fill="#E97132"/><rect x="529.5" y="1559.5" width="278" height="60.9999" stroke="#052909" stroke-width="6.875" stroke-miterlimit="8" fill="#196B24"/><rect x="529.5" y="1498.5" width="278" height="61.0002" stroke="#052909" stroke-width="6.875" stroke-miterlimit="8" fill="#196B24"/><rect x="529.5" y="1437.5" width="278" height="60.9999" stroke="#052909" stroke-width="6.875" stroke-miterlimit="8" fill="#196B24"/><rect x="529.5" y="1375.5" width="278" height="62.0002" stroke="#052909" stroke-width="6.875" stroke-miterlimit="8" fill="#196B24"/><rect x="1059.5" y="1559.5" width="278" height="60.9999" stroke="#024059" stroke-width="6.875" stroke-miterlimit="8" fill="#0F9ED5"/><rect x="1059.5" y="1498.5" width="278" height="61.0002" stroke="#024059" stroke-width="6.875" stroke-miterlimit="8" fill="#0F9ED5"/><rect x="1059.5" y="1437.5" width="278" height="60.9999" stroke="#024059" stroke-width="6.875" stroke-miterlimit="8" fill="#0F9ED5"/><rect x="1059.5" y="1375.5" width="278" height="62.0002" stroke="#024059" stroke-width="6.875" stroke-miterlimit="8" fill="#0F9ED5"/><rect x="1588.5" y="1559.5" width="278" height="60.9999" stroke="#042433" stroke-width="6.875" stroke-miterlimit="8" fill="#156082"/><rect x="1588.5" y="1498.5" width="278" height="61.0002" stroke="#042433" stroke-width="6.875" stroke-miterlimit="8" fill="#156082"/><rect x="1588.5" y="1437.5" width="278" height="60.9999" stroke="#042433" stroke-width="6.875" stroke-miterlimit="8" fill="#156082"/><rect x="1588.5" y="1375.5" width="278" height="62.0002" stroke="#042433" stroke-width="6.875" stroke-miterlimit="8" fill="#156082"/><rect x="529.5" y="816.5" width="278" height="61.0002" stroke="#1C440D" stroke-width="6.875" stroke-miterlimit="8" fill="#4EA72E"/><text fill="#FFFFFF" font-family="DengXian,DengXian_MSFontService,sans-serif" font-weight="400" font-size="37" transform="matrix(1 0 0 1 574.708 858)">Transparent</text><rect x="1059.5" y="816.5" width="278" height="61.0002" stroke="#410C3B" stroke-width="6.875" stroke-miterlimit="8" fill="#A02B93"/><text fill="#FFFFFF" font-family="DengXian,DengXian_MSFontService,sans-serif" font-weight="400" font-size="37" transform="matrix(1 0 0 1 1148.57 858)">Mirror</text><text font-family="DengXian,DengXian_MSFontService,sans-serif" font-weight="400" font-size="37" transform="matrix(1 0 0 1 127.174 1663)">A</text><text font-family="DengXian,DengXian_MSFontService,sans-serif" font-weight="400" font-size="37" transform="matrix(1 0 0 1 658.067 1663)">B</text><text font-family="DengXian,DengXian_MSFontService,sans-serif" font-weight="400" font-size="37" transform="matrix(1 0 0 1 1186.38 1663)">C</text><text font-family="DengXian,DengXian_MSFontService,sans-serif" font-weight="400" font-size="37" transform="matrix(1 0 0 1 1714.7 1663)">D</text><text font-family="DengXian,DengXian_MSFontService,sans-serif" font-weight="400" font-size="37" transform="matrix(1 0 0 1 657.781 797)">R</text><text font-family="DengXian,DengXian_MSFontService,sans-serif" font-weight="400" font-size="37" transform="matrix(1 0 0 1 1188.39 797)">S</text><path d="M2.35605-2.50308 515.13 480.15 510.418 485.156-2.35605 2.50308ZM518.861 469.5 529.461 498.36 500.012 489.524Z" fill="#196B24" transform="matrix(-1 0 0 1 668.961 877.5)"/><path d="M671.938 877.5 671.938 1352.94 665.063 1352.94 665.063 877.5ZM682.25 1348.36 668.5 1375.86 654.75 1348.36Z" fill="#196B24"/><path d="M670.856 874.997 1183.63 1357.65 1178.92 1362.66 666.144 880.003ZM1187.36 1347 1197.96 1375.86 1168.51 1367.02Z" fill="#196B24"/><path d="M669.964 874.39 1708.15 1362.99 1705.22 1369.21 667.036 880.61ZM1708.4 1351.71 1727.42 1375.86 1696.69 1376.59Z" fill="#196B24"/><path d="M1.46378-3.11026 1039.65 485.492 1036.72 491.712-1.46378 3.11026ZM1039.9 474.209 1058.92 498.36 1028.18 499.091Z" fill="#A02B93" transform="matrix(-1 0 0 1 1198.42 877.5)"/><path d="M2.35605-2.50308 515.129 480.149 510.417 485.156-2.35605 2.50308ZM518.86 469.5 529.461 498.36 500.012 489.524Z" fill="#A02B93" transform="matrix(-1 0 0 1 1197.96 877.5)"/><path d="M1201.94 877.5 1201.94 1352.94 1195.06 1352.94 1195.06 877.5ZM1212.25 1348.36 1198.5 1375.86 1184.75 1348.36Z" fill="#A02B93"/><path d="M1200.86 874.997 1713.63 1357.65 1708.92 1362.66 1196.14 880.003ZM1717.36 1347 1727.96 1375.86 1698.51 1367.02Z" fill="#A02B93"/><rect x="2534.5" y="979.5" width="278" height="61.0002" stroke="#622C0F" stroke-width="6.875" stroke-miterlimit="8" fill="#E97132"/><rect x="2534.5" y="918.5" width="278" height="60.9998" stroke="#622C0F" stroke-width="6.875" stroke-miterlimit="8" fill="#E97132"/><rect x="2534.5" y="856.5" width="278" height="61.9999" stroke="#622C0F" stroke-width="6.875" stroke-miterlimit="8" fill="#E97132"/><rect x="2534.5" y="795.5" width="278" height="61.0002" stroke="#622C0F" stroke-width="6.875" stroke-miterlimit="8" fill="#E97132"/><rect x="3063.5" y="979.5" width="278" height="61.0002" stroke="#052909" stroke-width="6.875" stroke-miterlimit="8" fill="#196B24"/><rect x="3063.5" y="918.5" width="278" height="60.9998" stroke="#052909" stroke-width="6.875" stroke-miterlimit="8" fill="#196B24"/><rect x="3063.5" y="856.5" width="278" height="61.9999" stroke="#052909" stroke-width="6.875" stroke-miterlimit="8" fill="#196B24"/><rect x="3063.5" y="795.5" width="278" height="61.0002" stroke="#052909" stroke-width="6.875" stroke-miterlimit="8" fill="#196B24"/><rect x="3593.5" y="979.5" width="278" height="61.0002" stroke="#024059" stroke-width="6.875" stroke-miterlimit="8" fill="#0F9ED5"/><rect x="3593.5" y="918.5" width="278" height="60.9998" stroke="#024059" stroke-width="6.875" stroke-miterlimit="8" fill="#0F9ED5"/><rect x="3593.5" y="856.5" width="278" height="61.9999" stroke="#024059" stroke-width="6.875" stroke-miterlimit="8" fill="#0F9ED5"/><rect x="3593.5" y="795.5" width="278" height="61.0002" stroke="#024059" stroke-width="6.875" stroke-miterlimit="8" fill="#0F9ED5"/><rect x="4122.5" y="979.5" width="278" height="61.0002" stroke="#042433" stroke-width="6.875" stroke-miterlimit="8" fill="#156082"/><rect x="4122.5" y="918.5" width="278" height="60.9998" stroke="#042433" stroke-width="6.875" stroke-miterlimit="8" fill="#156082"/><rect x="4122.5" y="856.5" width="278" height="61.9999" stroke="#042433" stroke-width="6.875" stroke-miterlimit="8" fill="#156082"/><rect x="4122.5" y="795.5" width="278" height="61.0002" stroke="#042433" stroke-width="6.875" stroke-miterlimit="8" fill="#156082"/><text font-family="DengXian,DengXian_MSFontService,sans-serif" font-weight="400" font-size="37" transform="matrix(1 0 0 1 2642.62 1083)">A_R</text><text font-family="DengXian,DengXian_MSFontService,sans-serif" font-weight="400" font-size="37" transform="matrix(1 0 0 1 3173.51 1083)">B_R</text><text font-family="DengXian,DengXian_MSFontService,sans-serif" font-weight="400" font-size="37" transform="matrix(1 0 0 1 3701.83 1083)">C_R</text><text font-family="DengXian,DengXian_MSFontService,sans-serif" font-weight="400" font-size="37" transform="matrix(1 0 0 1 4230.14 1083)">D_R</text><rect x="2534.5" y="734.5" width="278" height="60.9998" stroke="#1C440D" stroke-width="6.875" stroke-miterlimit="8" fill="#4EA72E"/><text fill="#FFFFFF" font-family="DengXian,DengXian_MSFontService,sans-serif" font-weight="400" font-size="37" transform="matrix(1 0 0 1 2579.03 777)">Transparent</text><rect x="3063.5" y="734.5" width="278" height="60.9998" stroke="#1C440D" stroke-width="6.875" stroke-miterlimit="8" fill="#4EA72E"/><text fill="#FFFFFF" font-family="DengXian,DengXian_MSFontService,sans-serif" font-weight="400" font-size="37" transform="matrix(1 0 0 1 3108.49 777)">Transparent</text><rect x="3593.5" y="734.5" width="278" height="60.9998" stroke="#1C440D" stroke-width="6.875" stroke-miterlimit="8" fill="#4EA72E"/><text fill="#FFFFFF" font-family="DengXian,DengXian_MSFontService,sans-serif" font-weight="400" font-size="37" transform="matrix(1 0 0 1 3637.95 777)">Transparent</text><rect x="4122.5" y="734.5" width="278" height="60.9998" stroke="#1C440D" stroke-width="6.875" stroke-miterlimit="8" fill="#4EA72E"/><text fill="#FFFFFF" font-family="DengXian,DengXian_MSFontService,sans-serif" font-weight="400" font-size="37" transform="matrix(1 0 0 1 4167.41 777)">Transparent</text><rect x="2534.5" y="1619.5" width="278" height="61.0002" stroke="#622C0F" stroke-width="6.875" stroke-miterlimit="8" fill="#E97132"/><rect x="2534.5" y="1557.5" width="278" height="61.9999" stroke="#622C0F" stroke-width="6.875" stroke-miterlimit="8" fill="#E97132"/><rect x="2534.5" y="1496.5" width="278" height="61.0002" stroke="#622C0F" stroke-width="6.875" stroke-miterlimit="8" fill="#E97132"/><rect x="2534.5" y="1435.5" width="278" height="60.9999" stroke="#622C0F" stroke-width="6.875" stroke-miterlimit="8" fill="#E97132"/><rect x="3063.5" y="1619.5" width="278" height="61.0002" stroke="#052909" stroke-width="6.875" stroke-miterlimit="8" fill="#196B24"/><rect x="3063.5" y="1557.5" width="278" height="61.9999" stroke="#052909" stroke-width="6.875" stroke-miterlimit="8" fill="#196B24"/><rect x="3063.5" y="1496.5" width="278" height="61.0002" stroke="#052909" stroke-width="6.875" stroke-miterlimit="8" fill="#196B24"/><rect x="3063.5" y="1435.5" width="278" height="60.9999" stroke="#052909" stroke-width="6.875" stroke-miterlimit="8" fill="#196B24"/><rect x="3593.5" y="1619.5" width="278" height="61.0002" stroke="#024059" stroke-width="6.875" stroke-miterlimit="8" fill="#0F9ED5"/><rect x="3593.5" y="1557.5" width="278" height="61.9999" stroke="#024059" stroke-width="6.875" stroke-miterlimit="8" fill="#0F9ED5"/><rect x="3593.5" y="1496.5" width="278" height="61.0002" stroke="#024059" stroke-width="6.875" stroke-miterlimit="8" fill="#0F9ED5"/><rect x="3593.5" y="1435.5" width="278" height="60.9999" stroke="#024059" stroke-width="6.875" stroke-miterlimit="8" fill="#0F9ED5"/><rect x="4122.5" y="1619.5" width="278" height="61.0002" stroke="#042433" stroke-width="6.875" stroke-miterlimit="8" fill="#156082"/><rect x="4122.5" y="1557.5" width="278" height="61.9999" stroke="#042433" stroke-width="6.875" stroke-miterlimit="8" fill="#156082"/><rect x="4122.5" y="1496.5" width="278" height="61.0002" stroke="#042433" stroke-width="6.875" stroke-miterlimit="8" fill="#156082"/><rect x="4122.5" y="1435.5" width="278" height="60.9999" stroke="#042433" stroke-width="6.875" stroke-miterlimit="8" fill="#156082"/><text font-family="DengXian,DengXian_MSFontService,sans-serif" font-weight="400" font-size="37" transform="matrix(1 0 0 1 2643.77 1722)">A_S</text><text font-family="DengXian,DengXian_MSFontService,sans-serif" font-weight="400" font-size="37" transform="matrix(1 0 0 1 3174.66 1722)">B_S</text><text font-family="DengXian,DengXian_MSFontService,sans-serif" font-weight="400" font-size="37" transform="matrix(1 0 0 1 3702.97 1722)">C_S</text><text font-family="DengXian,DengXian_MSFontService,sans-serif" font-weight="400" font-size="37" transform="matrix(1 0 0 1 4231.29 1722)">D_S</text><rect x="2534.5" y="1374.5" width="278" height="60.9999" stroke="#410C3B" stroke-width="6.875" stroke-miterlimit="8" fill="#A02B93"/><text fill="#FFFFFF" font-family="DengXian,DengXian_MSFontService,sans-serif" font-weight="400" font-size="37" transform="matrix(1 0 0 1 2623.43 1416)">Mirror</text><rect x="3063.5" y="1374.5" width="278" height="60.9999" stroke="#410C3B" stroke-width="6.875" stroke-miterlimit="8" fill="#A02B93"/><text fill="#FFFFFF" font-family="DengXian,DengXian_MSFontService,sans-serif" font-weight="400" font-size="37" transform="matrix(1 0 0 1 3152.89 1416)">Mirror</text><rect x="3593.5" y="1374.5" width="278" height="60.9999" stroke="#410C3B" stroke-width="6.875" stroke-miterlimit="8" fill="#A02B93"/><text fill="#FFFFFF" font-family="DengXian,DengXian_MSFontService,sans-serif" font-weight="400" font-size="37" transform="matrix(1 0 0 1 3682.35 1416)">Mirror</text><rect x="4122.5" y="1374.5" width="278" height="60.9999" stroke="#410C3B" stroke-width="6.875" stroke-miterlimit="8" fill="#A02B93"/><text fill="#FFFFFF" font-family="DengXian,DengXian_MSFontService,sans-serif" font-weight="400" font-size="37" transform="matrix(1 0 0 1 4211.81 1416)">Mirror</text><path d="M1981.5 1230.06 2397.45 1230.06 2397.45 1236.94 1981.5 1236.94ZM2392.87 1219.75 2420.37 1233.5 2392.87 1247.25Z" fill="#156082"/></g></svg>