<svg width="3314" height="1278" xmlns="http://www.w3.org/2000/svg" xmlns:xlink="http://www.w3.org/1999/xlink" xml:space="preserve" overflow="hidden"><g transform="translate(-430 -914)"><path d="M1213.5 1015C1213.5 961.152 1288.27 917.5 1380.5 917.5 1472.73 917.5 1547.5 961.152 1547.5 1015 1547.5 1068.85 1472.73 1112.5 1380.5 1112.5 1288.27 1112.5 1213.5 1068.85 1213.5 1015Z" stroke="#1C440D" stroke-width="6.875" stroke-miterlimit="8" fill="#4EA72E" fill-rule="evenodd"/><path d="M433.5 1683.5C433.5 1528.86 558.86 1403.5 713.5 1403.5 868.14 1403.5 993.5 1528.86 993.5 1683.5 993.5 1838.14 868.14 1963.5 713.5 1963.5 558.86 1963.5 433.5 1838.14 433.5 1683.5Z" stroke="#410C3B" stroke-width="6.875" stroke-miterlimit="8" fill="#A02B93" fill-rule="evenodd"/><path d="M880.5 1684C880.5 1652.8 905.796 1627.5 937 1627.5 968.204 1627.5 993.5 1652.8 993.5 1684 993.5 1715.2 968.204 1740.5 937 1740.5 905.796 1740.5 880.5 1715.2 880.5 1684Z" stroke="#410C3B" stroke-width="6.875" stroke-miterlimit="8" fill="#A02B93" fill-rule="evenodd"/><text fill="#FFFFFF" font-family="DengXian,DengXian_MSFontService,sans-serif" font-weight="400" font-size="83" transform="matrix(1 0 0 1 910.312 1711)">A</text><path d="M1213.5 1684C1213.5 1652.8 1239.02 1627.5 1270.5 1627.5 1301.98 1627.5 1327.5 1652.8 1327.5 1684 1327.5 1715.2 1301.98 1740.5 1270.5 1740.5 1239.02 1740.5 1213.5 1715.2 1213.5 1684Z" stroke="#410C3B" stroke-width="6.875" stroke-miterlimit="8" fill="#A02B93" fill-rule="evenodd"/><text fill="#FFFFFF" font-family="DengXian,DengXian_MSFontService,sans-serif" font-weight="400" font-size="83" transform="matrix(1 0 0 1 1247.08 1711)">B</text><path d="M880.5 1015.5C880.5 984.02 905.796 958.5 937 958.5 968.204 958.5 993.5 984.02 993.5 1015.5 993.5 1046.98 968.204 1072.5 937 1072.5 905.796 1072.5 880.5 1046.98 880.5 1015.5Z" stroke="#1C440D" stroke-width="6.875" stroke-miterlimit="8" fill="#4EA72E" fill-rule="evenodd"/><text fill="#FFFFFF" font-family="DengXian,DengXian_MSFontService,sans-serif" font-weight="400" font-size="83" transform="matrix(1 0 0 1 911.172 1043)">C</text><path d="M1213.5 1015.5C1213.5 984.02 1239.02 958.5 1270.5 958.5 1301.98 958.5 1327.5 984.02 1327.5 1015.5 1327.5 1046.98 1301.98 1072.5 1270.5 1072.5 1239.02 1072.5 1213.5 1046.98 1213.5 1015.5Z" stroke="#1C440D" stroke-width="6.875" stroke-miterlimit="8" fill="#4EA72E" fill-rule="evenodd"/><text fill="#FFFFFF" font-family="DengXian,DengXian_MSFontService,sans-serif" font-weight="400" font-size="83" transform="matrix(1 0 0 1 1241.64 1043)">D</text><path d="M993.5 1015.5 1213.5 1015.5" stroke="#000000" stroke-width="6.875" stroke-miterlimit="8" fill="none" fill-rule="evenodd"/><path d="M993.5 1683.5 1213.5 1683.5" stroke="#000000" stroke-width="6.875" stroke-miterlimit="8" fill="none" fill-rule="evenodd"/><path d="M3407.5 1441C3407.5 1387.15 3482.04 1343.5 3574 1343.5 3665.96 1343.5 3740.5 1387.15 3740.5 1441 3740.5 1494.85 3665.96 1538.5 3574 1538.5 3482.04 1538.5 3407.5 1494.85 3407.5 1441Z" stroke="#1C440D" stroke-width="6.875" stroke-miterlimit="8" fill="#4EA72E" fill-rule="evenodd"/><path d="M2627.5 1440.5C2627.5 1285.86 2752.86 1160.5 2907.5 1160.5 3062.14 1160.5 3187.5 1285.86 3187.5 1440.5 3187.5 1595.14 3062.14 1720.5 2907.5 1720.5 2752.86 1720.5 2627.5 1595.14 2627.5 1440.5Z" stroke="#410C3B" stroke-width="6.875" stroke-miterlimit="8" fill="#A02B93" fill-rule="evenodd"/><path d="M3073.5 1441C3073.5 1409.8 3099.02 1384.5 3130.5 1384.5 3161.98 1384.5 3187.5 1409.8 3187.5 1441 3187.5 1472.2 3161.98 1497.5 3130.5 1497.5 3099.02 1497.5 3073.5 1472.2 3073.5 1441Z" stroke="#410C3B" stroke-width="6.875" stroke-miterlimit="8" fill="#A02B93" fill-rule="evenodd"/><text fill="#FFFFFF" font-family="DengXian,DengXian_MSFontService,sans-serif" font-weight="400" font-size="83" transform="matrix(1 0 0 1 3103.65 1468)">A</text><path d="M3407.5 1441C3407.5 1409.8 3432.8 1384.5 3464 1384.5 3495.2 1384.5 3520.5 1409.8 3520.5 1441 3520.5 1472.2 3495.2 1497.5 3464 1497.5 3432.8 1497.5 3407.5 1472.2 3407.5 1441Z" stroke="#1C440D" stroke-width="6.875" stroke-miterlimit="8" fill="#4EA72E" fill-rule="evenodd"/><text fill="#FFFFFF" font-family="DengXian,DengXian_MSFontService,sans-serif" font-weight="400" font-size="83" transform="matrix(1 0 0 1 3434.97 1468)">D</text><path d="M3187.5 1440.5 3407.5 1440.5" stroke="#000000" stroke-width="6.875" stroke-miterlimit="8" fill="none" fill-rule="evenodd"/><path d="M1672.5 1446.06 2456.25 1446.06 2456.25 1452.94 1672.5 1452.94ZM2451.67 1435.75 2479.17 1449.5 2451.67 1463.25Z" fill="#156082"/><text font-family="DengXian,DengXian_MSFontService,sans-serif" font-weight="400" font-size="83" transform="matrix(1 0 0 1 777.448 2120)">origin</text><text font-family="DengXian,DengXian_MSFontService,sans-serif" font-weight="400" font-size="83" transform="matrix(1 0 0 1 1017.97 1254)">substituent</text><text font-family="DengXian,DengXian_MSFontService,sans-serif" font-weight="400" font-size="83" transform="matrix(1 0 0 1 2819.24 1924)">substituted structure</text></g></svg>